<svg width="140" height="60" viewBox="0 0 140 60" fill="none" xmlns="http://www.w3.org/2000/svg">
<path opacity="0.25" fill-rule="evenodd" clip-rule="evenodd" d="M30 58C52.5 58 57 45 57 30C57 17.75 46 4 30 4C20.0589 4 9 12 9 30C9 43.25 17.75 58 30 58ZM30 48C39.9411 48 48 39.9411 48 30C48 20.0589 39.9411 12 30 12C20.0589 12 12 20.0589 12 30C12 39.9411 20.0589 48 30 48Z" fill="#D16E54"/>
<path opacity="0.4" fill-rule="evenodd" clip-rule="evenodd" d="M30 50C37.25 50 49 45 49 30C49 23.25 46 8 30 8C20.0589 8 11 12 11 30C11 43.25 17.75 50 30 50ZM30 48C39.9411 48 48 39.9411 48 30C48 20.0589 39.9411 12 30 12C20.0589 12 12 20.0589 12 30C12 39.9411 20.0589 48 30 48Z" fill="#D16E54"/>
<path opacity="0.4" fill-rule="evenodd" clip-rule="evenodd" d="M30 53.0001C40 53.0001 53 45 53 30C53 14.5 46 11.5 30 11.5C29.0007 11.5 27.9599 11.4723 26.8959 11.4439C17.3746 11.1897 6 10.886 6 30C6 40 17.75 53.0001 30 53.0001ZM30 48C39.9411 48 48 39.9411 48 30C48 20.0589 39.9411 12 30 12C20.0589 12 12 20.0589 12 30C12 39.9411 20.0589 48 30 48Z" fill="#D16E54"/>
<path opacity="0.8" fill-rule="evenodd" clip-rule="evenodd" d="M30 51.5C40 51.5 48.5 45 48.5 30C48.5 18.75 46 11.5 30 11.5C20.0589 11.5 11.5 13.75 11.5 30C11.5 40 17.75 51.5 30 51.5ZM30 48C39.9411 48 48 39.9411 48 30C48 20.0589 39.9411 12 30 12C20.0589 12 12 20.0589 12 30C12 39.9411 20.0589 48 30 48Z" fill="#D16E54"/>
<g filter="url(#filter0_i)">
<circle cx="30" cy="30" r="18" fill="#FFF8F0"/>
</g>
<path d="M79.68 38.24C83.064 38.24 86.016 36.464 86.016 33.416C86.016 26.336 76.032 29.936 76.032 24.752C76.032 23.216 77.112 21.896 79.224 21.896C83.256 21.896 82.224 26 84.48 26C85.32 26 85.728 25.52 85.728 24.776C85.752 22.952 83.4 20.744 79.296 20.744C75.336 20.744 73.104 22.856 73.104 25.544C73.104 32.744 83.088 28.688 83.088 34.208C83.088 35.936 81.744 37.088 79.8 37.088C75.312 37.088 76.104 32.84 73.92 32.768C73.152 32.744 72.744 33.296 72.744 33.968C72.744 35.672 74.952 38.24 79.68 38.24ZM99.9182 27.368V27.296C99.9182 27.032 99.7742 26.864 99.4862 26.792L97.3982 26.36C96.8462 26.216 96.5102 26.456 96.5102 26.864V27.752C95.7182 26.84 94.5662 26.24 93.1022 26.24C89.9582 26.24 87.4622 28.688 87.4622 32.216C87.4622 35.96 90.1262 38.24 93.0542 38.24C94.4222 38.24 95.7422 37.664 96.5102 36.584V37.544C96.5102 37.808 96.7022 38 96.9662 38H99.4622C99.7262 38 99.8702 37.88 99.8702 37.664V37.592C99.8702 37.088 98.9582 36.944 98.9582 36.008V29.048C98.9582 27.992 99.9182 27.776 99.9182 27.368ZM93.7022 37.328C91.5182 37.28 90.1262 34.496 90.1982 31.232C90.2462 28.688 91.4222 27.152 93.1982 27.152C94.8782 27.152 96.2462 28.856 96.2462 30.392V34.232C96.2462 36.32 94.8782 37.328 93.7022 37.328ZM121.229 35.984L120.941 31.544C120.677 27.608 118.757 26.24 116.453 26.24C114.773 26.24 113.333 27.104 112.709 28.616C111.893 27.08 110.381 26.24 108.653 26.24C107.165 26.24 105.917 27.008 105.221 28.184V26.768C105.221 26.36 104.957 26.072 104.453 26.336L102.005 27.464C101.741 27.584 101.573 27.704 101.573 27.896V27.968C101.573 28.496 102.629 28.568 102.629 29.576V36.008C102.629 36.944 101.669 37.064 101.669 37.592V37.688C101.669 37.904 101.885 38.024 102.197 38.024H105.917C106.229 38.024 106.421 37.904 106.421 37.688V37.592C106.421 37.064 105.461 36.944 105.461 36.008L105.437 30.248C105.509 28.64 106.469 27.392 107.957 27.392C109.397 27.392 110.477 28.76 110.477 31.208V36.008C110.477 36.944 109.637 37.064 109.637 37.592V37.688C109.637 37.904 109.853 38.024 110.165 38.024H113.645C113.957 38.024 114.149 37.904 114.149 37.688V37.592C114.149 37.064 113.309 36.944 113.309 36.008V31.376C113.309 30.968 113.285 30.584 113.213 30.224C113.285 28.592 114.293 27.392 115.613 27.392C117.125 27.392 118.013 28.496 118.157 31.472L118.397 36.008C118.445 36.944 117.557 37.064 117.557 37.592V37.688C117.557 37.904 117.749 38.024 118.061 38.024H121.589C121.877 38.024 122.093 37.904 122.093 37.688V37.592C122.093 37.064 121.277 36.944 121.229 35.984ZM135.754 27.368V27.296C135.754 27.032 135.61 26.864 135.322 26.792L133.234 26.36C132.682 26.216 132.346 26.456 132.346 26.864V27.752C131.554 26.84 130.402 26.24 128.938 26.24C125.794 26.24 123.298 28.688 123.298 32.216C123.298 35.96 125.962 38.24 128.89 38.24C130.258 38.24 131.578 37.664 132.346 36.584V37.544C132.346 37.808 132.538 38 132.802 38H135.298C135.562 38 135.706 37.88 135.706 37.664V37.592C135.706 37.088 134.794 36.944 134.794 36.008V29.048C134.794 27.992 135.754 27.776 135.754 27.368ZM129.538 37.328C127.354 37.28 125.962 34.496 126.034 31.232C126.082 28.688 127.258 27.152 129.034 27.152C130.714 27.152 132.082 28.856 132.082 30.392V34.232C132.082 36.32 130.714 37.328 129.538 37.328Z" fill="black"/>
<defs>
<filter id="filter0_i" x="12" y="12" width="36" height="37" filterUnits="userSpaceOnUse" color-interpolation-filters="sRGB">
<feFlood flood-opacity="0" result="BackgroundImageFix"/>
<feBlend mode="normal" in="SourceGraphic" in2="BackgroundImageFix" result="shape"/>
<feColorMatrix in="SourceAlpha" type="matrix" values="0 0 0 0 0 0 0 0 0 0 0 0 0 0 0 0 0 0 127 0" result="hardAlpha"/>
<feOffset dy="1"/>
<feGaussianBlur stdDeviation="1"/>
<feComposite in2="hardAlpha" operator="arithmetic" k2="-1" k3="1"/>
<feColorMatrix type="matrix" values="0 0 0 0 0.341667 0 0 0 0 0.0872222 0 0 0 0 0.0156597 0 0 0 0.18 0"/>
<feBlend mode="normal" in2="shape" result="effect1_innerShadow"/>
</filter>
</defs>
</svg>
