<svg width="40" height="40" viewBox="0 0 40 40" fill="none" xmlns="http://www.w3.org/2000/svg">
<path d="M29.6149 19.5014C29.651 16.6997 31.1557 14.0487 33.5425 12.5813C32.0368 10.4307 29.5146 9.06724 26.8906 8.98514C24.0919 8.69137 21.3786 10.6599 19.9524 10.6599C18.4987 10.6599 16.3028 9.01431 13.9383 9.06296C10.8562 9.16253 7.98291 10.9148 6.48341 13.6094C3.26008 19.1901 5.6644 27.3919 8.75208 31.9029C10.2969 34.1118 12.1024 36.5792 14.4648 36.4917C16.7766 36.3958 17.64 35.0176 20.4305 35.0176C23.1951 35.0176 24.0051 36.4917 26.4155 36.4361C28.8961 36.3958 30.459 34.2173 31.9496 31.9875C33.0596 30.4136 33.9137 28.674 34.4803 26.8333C31.5651 25.6003 29.6184 22.6666 29.6149 19.5014Z" fill="#FFF8F0"/>
<path d="M25.0622 6.01847C26.4147 4.39479 27.0811 2.30783 26.9197 0.200775C24.8533 0.417809 22.9446 1.40541 21.5737 2.96679C20.2333 4.49234 19.5357 6.54259 19.6676 8.56911C21.7347 8.59039 23.7668 7.62956 25.0622 6.01847Z" fill="#FFF8F0"/>
</svg>
